<svg width="512" height="512" viewBox="0 0 512 512" fill="none" xmlns="http://www.w3.org/2000/svg">
<path d="M0 80C0 35.8172 35.8172 0 80 0H352C440.366 0 512 71.6344 512 160V432C512 476.183 476.183 512 432 512H160C71.6344 512 0 440.366 0 352V80Z" fill="#3D3C3C"/>
<path d="M301.422 65.701C275.844 55.2926 246.672 67.5893 236.263 93.1668L233.226 100.631L224.559 97.1043C197.959 86.2799 167.619 99.0684 156.795 125.669L142.553 160.667L124.337 153.282C98.7454 142.908 69.5899 155.244 59.2155 180.835L58.4606 182.696C48.0867 208.287 60.4224 237.443 86.0133 247.817L104.104 255.15L92.4772 283.722C81.6532 310.323 94.4425 340.662 121.043 351.487L224.684 393.661C225.195 393.869 225.779 393.623 225.987 393.112L232.623 376.804C241.869 354.084 267.783 343.16 290.504 352.406C315.951 362.762 328.186 391.786 317.831 417.233L313.204 428.604C312.996 429.115 313.242 429.699 313.753 429.907L330.074 436.549C356.674 447.373 387.014 434.584 397.839 407.984L404.48 391.664C404.688 391.152 404.441 390.568 403.929 390.36L389.547 384.521C366.008 374.964 354.674 348.134 364.23 324.596L365.043 322.593C374.6 299.054 401.43 287.719 424.968 297.276L439.423 303.144C439.934 303.352 440.517 303.105 440.725 302.595L462.155 249.93C472.98 223.33 460.191 192.991 433.59 182.166L327.712 139.08L330.749 131.616C341.157 106.038 328.859 76.8662 303.282 66.4578L301.422 65.701Z" fill="#C9D6E6"/>
<circle cx="11.7702" cy="11.7702" r="11.7702" transform="matrix(-0.998375 0.0569942 0.0569942 0.998375 291.23 367.087)" fill="#C9D6E6"/>
<circle cx="11.7702" cy="11.7702" r="11.7702" transform="matrix(-0.998375 0.0569942 0.0569942 0.998375 404.637 324.56)" fill="#C9D6E6"/>
</svg>
